# xmcd CD database file
#
# Track frame offsets:
#	150
#	20346
#	36069
#	52298
#	69386
#	85510
#	102186
#	116536
#	133449
#	150311
#	166405
#	184703
#	200029
#	216002
#
# Disc length: 3076 seconds
#
# Revision: 0
# Processed by: cddbd v1.5.1PL0 Copyright (c) Steve Scherf et al.
# Submitted via: CDex 1.51
#
DISCID=be0c020e
DTITLE=Simon Webbe - Sanctuary
DYEAR=2005
DGENRE=Blues
TTITLE0=Lay Your Hands
TTITLE1=No Worries
TTITLE2=After All This Time
TTITLE3=Little High
TTITLE4=Time Of Your Life
TTITLE5=Unjustified
TTITLE6=Free
TTITLE7=Ashamed
TTITLE8=Only Love
TTITLE9=All I Want
TTITLE10=Star
TTITLE11=Sanctuary
TTITLE12=Give A Man Hope
TTITLE13=I Ain't You
EXTD=YEAR: 2005
EXTT0=
EXTT1=
EXTT2=
EXTT3=
EXTT4=
EXTT5=
EXTT6=
EXTT7=
EXTT8=
EXTT9=
EXTT10=
EXTT11=
EXTT12=
EXTT13=
PLAYORDER=
